<svg xmlns="http://www.w3.org/2000/svg" xmlns:xlink="http://www.w3.org/1999/xlink" viewBox="0 0 100 125" version="1.1" x="0px" y="0px"><title>i20 copy 5</title><desc>Created with Sketch.</desc><g stroke="none" stroke-width="1" fill="none" fill-rule="evenodd"><path d="M89.3356643,80.5005594 C89.3356643,85.3725175 85.3718881,89.3356643 80.4999301,89.3356643 L19.4994406,89.3356643 C14.6281119,89.3356643 10.6643357,85.3725175 10.6643357,80.5005594 L10.6643357,19.5000699 C10.6643357,14.6281119 14.6281119,10.6643357 19.4994406,10.6643357 L80.4999301,10.6643357 C85.3718881,10.6643357 89.3356643,14.6281119 89.3356643,19.5000699 L89.3356643,80.5005594 Z M80.4999301,5 L19.4994406,5 C11.5045455,5 5,11.5045455 5,19.5000699 L5,80.5005594 C5,88.4954545 11.5045455,95 19.4994406,95 L80.4999301,95 C88.4954545,95 95,88.4954545 95,80.5005594 L95,19.5000699 C95,11.5045455 88.4954545,5 80.4999301,5 L80.4999301,5 Z M76.3278322,70.2877622 C77.2467133,71.6736364 76.7362937,73.5548252 75.2660839,74.3302098 L75.2660839,74.3302098 C73.9783916,75.0093007 72.3917483,74.5976923 71.5848951,73.3855245 C66.9061538,66.3516783 58.932028,62.076993 50.2095804,62.076993 C41.4871329,62.076993 33.513007,66.3516783 28.8342657,73.3855245 C28.0274126,74.5976923 26.4407692,75.0093007 25.1530769,74.3302098 L25.1530769,74.3302098 C23.6828671,73.5548252 23.1724476,71.6736364 24.0913287,70.2877622 C29.8104196,61.6584615 39.5568531,56.4126573 50.2095804,56.4126573 C60.8623077,56.4126573 70.6087413,61.6584615 76.3278322,70.2877622 L76.3278322,70.2877622 Z M50.2095804,25.9353846 C55.2413986,25.9353846 59.3354545,30.0294406 59.3354545,35.0612587 C59.3354545,40.0930769 55.2413986,44.1871329 50.2095804,44.1871329 C45.1777622,44.1871329 41.0837063,40.0930769 41.0837063,35.0612587 C41.0837063,30.0294406 45.1777622,25.9353846 50.2095804,25.9353846 L50.2095804,25.9353846 Z M50.2095804,49.8514685 C58.364965,49.8514685 64.9997902,43.2166434 64.9997902,35.0612587 C64.9997902,26.9058741 58.364965,20.271049 50.2095804,20.271049 C42.0541958,20.271049 35.4193706,26.9058741 35.4193706,35.0612587 C35.4193706,43.2166434 42.0541958,49.8514685 50.2095804,49.8514685 L50.2095804,49.8514685 Z" fill="#000000"/></g><text x="0" y="115" fill="#000000" font-size="5px" font-weight="bold" font-family="'Helvetica Neue', Helvetica, Arial-Unicode, Arial, Sans-serif"></text><text x="0" y="120" fill="#000000" font-size="5px" font-weight="bold" font-family="'Helvetica Neue', Helvetica, Arial-Unicode, Arial, Sans-serif"></text></svg>